<?xml version="1.0" encoding="UTF-8"?>
<svg width="222px" height="216px" viewBox="0 0 222 216" version="1.1" xmlns="http://www.w3.org/2000/svg" xmlns:xlink="http://www.w3.org/1999/xlink">
    <!-- Generator: Sketch 46.2 (44496) - http://www.bohemiancoding.com/sketch -->
    <title>logo</title>
    <desc>Created with Sketch.</desc>
    <defs>
        <path d="M54.4485714,166.394286 L54.4485714,61.7885714 L34.1085714,61.7885714 L34.1085714,184.797143 L51.5428571,184.797143 L103.845714,184.797143 L103.845714,166.394286 L54.4485714,166.394286 Z M170.192857,184.797143 L186.174286,184.797143 L186.174286,42.9014286 L186.174286,30.7942857 L120.311429,30.7942857 L120.311429,19.1714286 L220.074286,19.1714286 L220.074286,0.768571429 L0.208571429,0.768571429 L0.208571429,15.2971429 L0.208571429,214.822857 L9.65214286,214.822857 L18.1271429,214.822857 L205.061429,214.822857 L220.074286,214.822857 L220.074286,30.7942857 L199.734286,30.7942857 L199.734286,196.472744 L21.5171429,197.355007 L21.5171429,19.1714286 L99.9714286,19.1714286 L99.9714286,30.7942857 L34.1085714,30.7942857 L34.1085714,49.1971429 L165.834286,49.1971429 L165.834286,166.394286 L119.342857,166.394286 L119.342857,184.797143 L170.192857,184.797143 Z" id="path-1"></path>
    </defs>
    <g id="Page-1" stroke="none" stroke-width="1" fill="none" fill-rule="evenodd">
        <g id="logo" transform="translate(1.000000, 0.000000)">
            <g id="N" transform="translate(59.000000, 24.000000)" font-size="128.82" font-family="Avenir-Heavy, Avenir" font-weight="600">
                <g id="Group" fill="#FFFFFF">
                    <text id="N">
                        <tspan x="0.2914286" y="129.014286">N</tspan>
                    </text>
                </g>
                <g id="Group" stroke="#232323" fill="#232323">
                    <text id="N">
                        <tspan x="0.2914286" y="129.014286">N</tspan>
                    </text>
                </g>
            </g>
            <g id="L" transform="translate(21.000000, 24.000000)" font-size="160.782857" font-family="Avenir-Heavy, Avenir" fill="#FFFFFF" font-weight="600">
                <g id="Group">
                    <text id="L">
                        <tspan x="0.5171429" y="161.014286">L</tspan>
                    </text>
                </g>
                <g id="Group">
                    <text id="L">
                        <tspan x="0.5171429" y="161.014286">L</tspan>
                    </text>
                </g>
            </g>
            <g id="Combined-Shape">
                <g id="path-5-Clipped">
                    <g id="path-5" stroke="#FFFFFF">
                        <path d="M54.4485714,166.394286 L54.4485714,61.7885714 L34.1085714,61.7885714 L34.1085714,184.797143 L51.5428571,184.797143 L103.845714,184.797143 L103.845714,166.394286 L54.4485714,166.394286 Z M170.192857,184.797143 L186.174286,184.797143 L186.174286,42.9014286 L186.174286,30.7942857 L120.311429,30.7942857 L120.311429,19.1714286 L220.074286,19.1714286 L220.074286,0.768571429 L0.208571429,0.768571429 L0.208571429,15.2971429 L0.208571429,214.822857 L9.65214286,214.822857 L18.1271429,214.822857 L205.061429,214.822857 L220.074286,214.822857 L220.074286,30.7942857 L199.734286,30.7942857 L199.734286,196.472744 L21.5171429,197.355007 L21.5171429,19.1714286 L99.9714286,19.1714286 L99.9714286,30.7942857 L34.1085714,30.7942857 L34.1085714,49.1971429 L165.834286,49.1971429 L165.834286,166.394286 L119.342857,166.394286 L119.342857,184.797143 L170.192857,184.797143 Z" id="path-1"></path>
                    </g>
                    <g>
                        <mask id="mask-2" fill="white">
                            <use xlink:href="#path-1"></use>
                        </mask>
                        <use id="path-1" stroke="#232323" fill="#232323" xlink:href="#path-1"></use>
                        <path d="M54.4485714,166.394286 L54.4485714,61.7885714 L34.1085714,61.7885714 L34.1085714,184.797143 L51.5428571,184.797143 L103.845714,184.797143 L103.845714,166.394286 L54.4485714,166.394286 Z M170.192857,184.797143 L186.174286,184.797143 L186.174286,42.9014286 L186.174286,30.7942857 L120.311429,30.7942857 L120.311429,19.1714286 L220.074286,19.1714286 L220.074286,0.768571429 L0.208571429,0.768571429 L0.208571429,15.2971429 L0.208571429,214.822857 L9.65214286,214.822857 L18.1271429,214.822857 L205.061429,214.822857 L220.074286,214.822857 L220.074286,30.7942857 L199.734286,30.7942857 L199.734286,196.472744 L21.5171429,197.355007 L21.5171429,19.1714286 L99.9714286,19.1714286 L99.9714286,30.7942857 L34.1085714,30.7942857 L34.1085714,49.1971429 L165.834286,49.1971429 L165.834286,166.394286 L119.342857,166.394286 L119.342857,184.797143 L170.192857,184.797143 Z" id="path-5" stroke="#232323" stroke-width="2" fill="#232323" fill-rule="nonzero" mask="url(#mask-2)"></path>
                    </g>
                </g>
            </g>
        </g>
    </g>
</svg>