<svg id="Layer_1" data-name="Layer 1" xmlns="http://www.w3.org/2000/svg" xmlns:xlink="http://www.w3.org/1999/xlink" viewBox="0 0 405.39 381.2"><defs><linearGradient id="linear-gradient" x1="398.95" y1="341.24" x2="383.18" y2="324.34" gradientUnits="userSpaceOnUse"><stop offset="0" stop-opacity="0"/><stop offset="0.99"/></linearGradient><linearGradient id="linear-gradient-2" x1="297.43" y1="337.51" x2="310.56" y2="325.68" xlink:href="#linear-gradient"/><linearGradient id="linear-gradient-3" x1="129.06" y1="286.95" x2="181.35" y2="286.95" gradientUnits="userSpaceOnUse"><stop offset="0" stop-color="#e5c5d5"/><stop offset="0.42" stop-color="#ead4d1"/><stop offset="1" stop-color="#f0e9cb"/></linearGradient><linearGradient id="linear-gradient-4" x1="189.51" y1="288.46" x2="224.09" y2="288.46" xlink:href="#linear-gradient-3"/><linearGradient id="linear-gradient-5" x1="200.13" y1="166.99" x2="257.71" y2="166.99" xlink:href="#linear-gradient-3"/><linearGradient id="linear-gradient-6" x1="174.83" y1="86.12" x2="207.63" y2="86.12" xlink:href="#linear-gradient-3"/><linearGradient id="linear-gradient-7" x1="146.51" y1="118.85" x2="233.59" y2="218.42" xlink:href="#linear-gradient"/><linearGradient id="linear-gradient-8" x1="128.06" y1="160.41" x2="188.52" y2="160.41" xlink:href="#linear-gradient-3"/><linearGradient id="linear-gradient-9" x1="355.01" y1="305.57" x2="393.12" y2="305.57" xlink:href="#linear-gradient"/><linearGradient id="linear-gradient-10" x1="400.03" y1="286.74" x2="391.48" y2="295.94" xlink:href="#linear-gradient"/><linearGradient id="linear-gradient-11" x1="388.99" y1="276.96" x2="379.04" y2="283.25" xlink:href="#linear-gradient"/><linearGradient id="linear-gradient-12" x1="379.29" y1="267.97" x2="372.18" y2="283.46" xlink:href="#linear-gradient"/><linearGradient id="linear-gradient-13" x1="325.7" y1="285.3" x2="323.69" y2="288.77" xlink:href="#linear-gradient"/><linearGradient id="linear-gradient-14" x1="138.1" y1="254.45" x2="229.89" y2="149.15" xlink:href="#linear-gradient"/><linearGradient id="linear-gradient-15" x1="185.77" y1="242.2" x2="186.16" y2="242.2" xlink:href="#linear-gradient"/><linearGradient id="linear-gradient-16" x1="224.26" y1="206.37" x2="147.96" y2="233.4" xlink:href="#linear-gradient"/></defs><title>Walking with dog</title><path d="M420.37,371.76c-16.94,8.55-36.69,8.89-55.67,9.05l-58.9.48a140.56,140.56,0,0,0-20,1.13c-7.22,1.1-10.82.24-18-1.1-14.91-2.79-30.17-3-45.29-3.31l-73.42-1.39c-24.79-.46-50.58-1.17-72.6-12.56-4.91-2.54-9.68-5.7-12.88-10.21a35.21,35.21,0,0,1-4.44-9.52,81.36,81.36,0,0,1,2.4-56.09c7.63-18.11,21.62-33,28.06-51.62,6.95-20.18-6.07-43.67-12.09-63-7.82-25.14-12.39-51.68-9.35-77.83s14.27-51.93,34.1-69.24C131.94.69,175.61-2.47,214,5.75c13.24,2.84,26.37,6.92,38,13.9,30.07,18.11,45.84,52.85,72.33,75.87,31.43,27.32,76.5,36.93,103.85,68.33,18.92,21.72,26.63,51,30.46,79.52,3.31,24.67,4,51.32-7.17,74.24C441.49,338.13,445,359.33,420.37,371.76Z" transform="translate(-55.35 -1.73)" fill="#68e1fd" opacity="0.18" style="isolation:isolate"/><path d="M91.48,345.42c.86,5.88,8,8.2,13.84,9.17,60.68,10.08,122.59,8.86,184.08,7.54C313.64,361.6,337.94,361,362,358c16.12-2,48.91-3.84,60.84-15.77-8.48-5.13-24.67-2.31-34.44-2.37-24.13-.14-48.26-.24-72.39-.12q-71.37.35-142.73,2.54Q132.38,343.55,91.48,345.42Z" transform="translate(-55.35 -1.73)" fill="#68e1fd" opacity="0.18" style="isolation:isolate"/><path d="M245.18,353.1a4.86,4.86,0,0,1-2.73.86,197.26,197.26,0,0,1-21.3,1.48,7.17,7.17,0,0,1-2.88-.41,2.31,2.31,0,0,1-.06-4.43,7.64,7.64,0,0,1,2.86-.52c7.66-.34,15.63-.63,23.28.19A1.54,1.54,0,0,1,245.18,353.1Z" transform="translate(-55.35 -1.73)" fill="#68e1fd"/><path d="M127.17,351.32a11.14,11.14,0,0,0,2.44,2.36,10.94,10.94,0,0,0,4.92,1.28q5,.5,10.05.78a2.76,2.76,0,0,0,1.8-.3,2,2,0,0,0,.08-2.76,6.23,6.23,0,0,0-2.65-1.54,42.67,42.67,0,0,1-14.62-9.55c-1.62-1.63-7.16-7.89-8.81-2.61C119.11,343,124.84,348.58,127.17,351.32Z" transform="translate(-55.35 -1.73)" fill="#68e1fd"/><path d="M394.92,327.58a11.52,11.52,0,0,1,2.79,3.47,10.72,10.72,0,0,1,.62,4.94,52.47,52.47,0,0,1-1,7.69c-.15.78-.52,1.74-1.32,1.78a1.68,1.68,0,0,1-1.19-.61,8.24,8.24,0,0,1-2.43-5.87,6.29,6.29,0,0,0-.17-2.49,4.62,4.62,0,0,0-2.62-2.12l-7.5-3.45c-2.07-.95-4.32-2.1-5.09-4.23-1.2-3.32,2.81-9,6.43-9S392.41,325.16,394.92,327.58Z" transform="translate(-55.35 -1.73)" fill="#3e3e54"/><path d="M301.12,333.42a24.24,24.24,0,0,1-3.6,3.09,8.41,8.41,0,0,0-2.93,3.66,3.66,3.66,0,0,0,1.22,4.23c1.95,1.2,4.39-.34,6.14-1.81L313.44,333a8.67,8.67,0,0,0,2.79-3.27c.72-1.87.08-4-.76-5.79a12.3,12.3,0,0,0-2.78-4.11C304.56,312.48,304.18,329.77,301.12,333.42Z" transform="translate(-55.35 -1.73)" fill="#3e3e54"/><path d="M394.92,327.58a11.52,11.52,0,0,1,2.79,3.47,10.72,10.72,0,0,1,.62,4.94,52.47,52.47,0,0,1-1,7.69c-.15.78-.52,1.74-1.32,1.78a1.68,1.68,0,0,1-1.19-.61,8.24,8.24,0,0,1-2.43-5.87,6.29,6.29,0,0,0-.17-2.49,4.62,4.62,0,0,0-2.62-2.12l-7.5-3.45c-2.07-.95-4.32-2.1-5.09-4.23-1.2-3.32,2.81-9,6.43-9S392.41,325.16,394.92,327.58Z" transform="translate(-55.35 -1.73)" fill="url(#linear-gradient)"/><path d="M301.12,333.42a24.24,24.24,0,0,1-3.6,3.09,8.41,8.41,0,0,0-2.93,3.66,3.66,3.66,0,0,0,1.22,4.23c1.95,1.2,4.39-.34,6.14-1.81L313.44,333a8.67,8.67,0,0,0,2.79-3.27c.72-1.87.08-4-.76-5.79a12.3,12.3,0,0,0-2.78-4.11C304.56,312.48,304.18,329.77,301.12,333.42Z" transform="translate(-55.35 -1.73)" fill="url(#linear-gradient-2)"/><path d="M177.1,244.91c-10.09,29.43-24.28,57.26-38.43,85-1,1.93-2.07,4-4,5s-4.8.57-5.49-1.48a5.53,5.53,0,0,1,0-2.56c2-12.62,6.26-24.84,7.46-37.56.43-4.59.48-9.35,2.33-13.58,2.34-5.35,7.28-9.22,9.58-14.59,1.5-3.51,1.76-7.41,2.22-11.21a97.7,97.7,0,0,1,3.13-15.45,92.33,92.33,0,0,1,27.43,6.11" transform="translate(-55.35 -1.73)" fill="url(#linear-gradient-3)"/><path d="M212.67,239.15c6.67,30.38,9,61.53,11.31,92.55.16,2.16.29,4.47-.77,6.35s-3.81,3-5.46,1.59a5.49,5.49,0,0,1-1.35-2.17c-4.88-11.8-7.56-24.48-13.14-36-2-4.15-4.45-8.24-5.07-12.82-.78-5.78,1.43-11.66.6-17.43-.54-3.79-2.35-7.26-3.93-10.74a99.72,99.72,0,0,1-5.35-14.83,92.61,92.61,0,0,1,26.61-9" transform="translate(-55.35 -1.73)" fill="url(#linear-gradient-4)"/><path d="M211,148.07c3.06,6.57,6.15,13.19,10.4,19.07s9.78,11,16.53,13.69c6.13,2.42,13.21,2.78,18.45,6.78a3.53,3.53,0,0,1,1.24,1.45,3.36,3.36,0,0,1-.27,2.36c-3,7.32-13.35,10.38-19.85,5.86-1.48-1-2.74-2.35-4.23-3.36a44.32,44.32,0,0,0-6.34-3c-4.5-2.08-8.36-5.31-12.15-8.5s-7.53-6.44-9-11c-1.69-5.31-6.24-10.72-5.56-16.25.39-3.22,1.15-6.65.7-9.86-.33-2.37.36-8.69,1.83-10.7C204.77,138,209.28,144.44,211,148.07Z" transform="translate(-55.35 -1.73)" fill="url(#linear-gradient-5)"/><path d="M207.54,80.81a17.76,17.76,0,0,1-.58,6.85A9.38,9.38,0,0,1,202.84,93a9.51,9.51,0,0,1-7.58.46,2.41,2.41,0,0,0-1.64-.17,1.88,1.88,0,0,0-.85.91c-1.17,2.13-1.18,4.69-2,7-.24.65.4,6.22-.15,6.64s-2-4.42-2.51-4.31a11.6,11.6,0,0,1-4.73,0,3.54,3.54,0,0,1-1.53-.62c-.38-.29-5.91,3.54-6.15,3.12-3.09-5.42,3.06-16.36,2.87-22.61-.13-4.36-.73-9.14,1.76-12.72,1.72-2.46,4.59-3.83,7.42-4.8a24,24,0,0,1,7.8-1.48c3.86,0,7,1.14,8.72,4.63A32.58,32.58,0,0,1,207.54,80.81Z" transform="translate(-55.35 -1.73)" fill="url(#linear-gradient-6)"/><path d="M203.49,61.07c1.32,2.6,1.33,6-.56,8.24a9.24,9.24,0,0,1-2.84,2.11A20.25,20.25,0,0,1,193,73.6a4.15,4.15,0,0,0-2,.53,3.58,3.58,0,0,0-1.12,1.64,18.92,18.92,0,0,0-1.31,5.7c-.67.38-1.51-.16-1.95-.79s-.76-1.41-1.44-1.78c-1.18-.67-2.73.47-3,1.8a5.21,5.21,0,0,0,1.28,3.75c.83,1.14,1.87,2.44,1.49,3.8a4.13,4.13,0,0,1-1.72,2l-4.41,3.33a1.88,1.88,0,0,1-2.93-.07,32.42,32.42,0,0,1-5.53-5.45,19.32,19.32,0,0,1-3.44-12.34,23.7,23.7,0,0,1,9.81-17.87C184.63,52.27,198.43,51,203.49,61.07Z" transform="translate(-55.35 -1.73)" fill="#3e3e54"/><path d="M167.84,44.05a10.27,10.27,0,0,0-10.42,5.29,13.87,13.87,0,0,0-1.28,5.86,12.62,12.62,0,0,0,.35,3.63,12.54,12.54,0,0,0,3.75,5.64,12.18,12.18,0,0,0,3,2.15,12.83,12.83,0,0,0,7.69.59,13.86,13.86,0,0,0,3.53-1,8.82,8.82,0,0,0,4.79-6,5,5,0,0,0,0-2.22,8,8,0,0,0-.67-1.6c-1.34-2.6-1.84-5.64-3.62-8A11.05,11.05,0,0,0,167.84,44.05Z" transform="translate(-55.35 -1.73)" fill="#3e3e54"/><path d="M162.78,175.22c-4.39-4.05-4.1-6.63-4.71-12.58a43.28,43.28,0,0,1,1.5-16.48c2.47-8.5-2.64-16-.29-24.58,1.44-5.23,10.23-32.75,32.08-16,3,2.29,4.09,6.32,6.38,9.31,2.62,3.41,6.09,6.16,8.31,9.84a18.31,18.31,0,0,1,.59,17.07c-1.28,2.67-3.22,4.71-4.35,7.47a27.51,27.51,0,0,0-1.67,10.94q.12,7.56.88,15.1c.33,3.26,2.38,7.52.24,10.39s-8.39,3.54-11.57,4.05c-8,1.29-16.88.49-23.34-4.86-2.87-2.37-5.2-6.15-4.05-9.69" transform="translate(-55.35 -1.73)" fill="#68e1fd"/><path d="M177.49,154.24c-.48,6.06.91,12.09,1.18,18.16s-.62,12.42-1.51,18.58l-2.08,14.36a2.25,2.25,0,0,1-.27.89c-.63,1-2.14.38-3-.41-4.57-4.37-4.29-11.56-5.41-17.79-1.23-6.83-4.45-13.13-6.31-19.82a45.8,45.8,0,0,1,.09-25.48,67.4,67.4,0,0,1,6.1-13.33c2.41-4.26,5.12-8.55,9.17-11.3,2.84-1.94,10-12.14,13-9.28,2.72,2.6-.53,15.48-1.59,18.32C183.59,136.08,178.26,144.53,177.49,154.24Z" transform="translate(-55.35 -1.73)" fill="url(#linear-gradient-7)"/><path d="M218.78,242.56a4.7,4.7,0,0,1-3.65,5.14c-.5.22-1,.42-1.55.62-6.22,2.35-14.78,3.61-21.05,4.22a4.46,4.46,0,0,1-2.94-.41,4.55,4.55,0,0,1-1.29-1.62c-.76-1.32-1.43-4.66-2.13-7.5a.13.13,0,0,1,0-.06c-.13-.53-.26-1-.39-1.51,0,0,0,0,0,0a11.4,11.4,0,0,0-.87-2.39,3.45,3.45,0,0,1,0,1.07c-.21,2.84-1.87,9.48-2.91,10.22a9.35,9.35,0,0,1-4.24,1.4,38.55,38.55,0,0,1-23.5-3.93,34.07,34.07,0,0,1-3.06-1.85,4.83,4.83,0,0,1-1.86-1.92,1.15,1.15,0,0,1-.06-.44c-.07-2,1.06-8.92,1.18-9.77,2-14,4-28,7.37-41.67a61.89,61.89,0,0,1,2.42-8.14,0,0,0,0,0,0,0c.13-.33.26-.66.4-1a7.73,7.73,0,0,1,2.37-3.44c1.61-1.15,3.76-1.07,5.73-.94l19.36,1.23a24.73,24.73,0,0,0,3.55-.09,48.11,48.11,0,0,1,5.58-.33c2.48.09,4,1.71,5.58,3.67,3.3,4,5.07,9.1,6.59,14C213.46,210.05,219.2,229,218.78,242.56Z" transform="translate(-55.35 -1.73)" fill="#fff"/><path d="M135.06,185.43c-1.48,2.5-3.2,4.85-4.48,7.45a24.87,24.87,0,0,0-2.05,15.7c.54,2.71,1.65,5.48,3.89,7.1s5.81,1.59,7.43-.65c2.29-3.17-.28-8.56,2.71-11.07,0,1,1.71,1.27,2.39.47a4,4,0,0,0,.52-3c-.31-3.2-.11-6.32-.42-9.52,2.79-4.23,5.61-8.52,7.21-13.32,2-6,2-12.54,4.94-18.1,2.13-4.08,5.6-7.25,8.8-10.56a101.15,101.15,0,0,0,19-27.86c1.76-3.84,3.31-7.88,3.49-12.1.16-3.75-5.85-6.09-9.61-5.95s-7.23,2.21-9.84,4.92a44.16,44.16,0,0,0-6.34,9.28q-8.21,14.54-16.42,29.07C145.19,149.27,139,178.78,135.06,185.43Z" transform="translate(-55.35 -1.73)" fill="url(#linear-gradient-8)"/><path d="M216.23,351.3a2.54,2.54,0,0,0,.73,1.39,2.63,2.63,0,0,0,1.64.37q12.65,0,25.25-1.05c1-.08,2.23-.42,2.32-1.4a2,2,0,0,0-.25-1c-1.74-3.64-5.44-5.87-9-7.84q-5-2.81-10.17-5.46a3.61,3.61,0,0,0-2-.59,4.29,4.29,0,0,0-1.65.7c-2.31,1.29-5.86,1-7.11,3.6C214.57,343.12,215.41,348.15,216.23,351.3Z" transform="translate(-55.35 -1.73)" fill="#3e3e54"/><path d="M124.29,333.75c-1,1.06-2,2.25-2.06,3.69a6,6,0,0,0,1.24,3.29,82.06,82.06,0,0,0,5.7,7.81,11,11,0,0,0,3.71,3.26,11.27,11.27,0,0,0,3.2.78c2.69.35,5.4.58,8.11.66a3.63,3.63,0,0,0,2.33-.48c1.12-.88.81-2.66.16-3.93a11.75,11.75,0,0,0-3.34-4,9.86,9.86,0,0,1-1.79-1.48,7.37,7.37,0,0,1-1.21-2.74,60.23,60.23,0,0,0-2.69-7.22,1.23,1.23,0,0,0-1.35-.94c-2.54-.1-4.49-1.09-6.85-1.78C127.34,330.07,125.61,332.32,124.29,333.75Z" transform="translate(-55.35 -1.73)" fill="#3e3e54"/><path d="M397,296.51c-.43,1.6-1.79,2.75-3.07,3.79a14.48,14.48,0,0,1-4.5,2.83A4.73,4.73,0,0,0,387,304.3a3.14,3.14,0,0,0-.53,1.4c-1,5.63,1.68,11.71-.45,17-1.05,2.26-3.52,3.49-5.89,4.28-5.66,1.91-11.71,2.32-17.69,2.55a324.42,324.42,0,0,1-46-1.51,13.23,13.23,0,0,1-4.09-.87c-3.35-1.5-4.9-5.41-5.37-9.05-.18-1.39-.3-2.92-1.26-3.94-2.48-2.63-5.75,0-8.31.73a16.33,16.33,0,0,1-11.5-1.41c-4.05-2.18-7-6.64-6.66-11.24a2.41,2.41,0,0,1,.33-1.21,1.94,1.94,0,0,1,2.17-.54,9.17,9.17,0,0,1,2.06,1.22c4.38,2.92,10.14,2.19,15.34,1.36,9.43-1.52,18.4-3.59,28-4.07l22.06-1.11c5.07-.25,12.6.81,15.52-4.55,1.24-2.27-.7-4.69-.15-7.22a30.34,30.34,0,0,1,2.34-6.73c.92-1.89,1.78-4.1,3.54-5.35.36-.25,3.44-2.3,5.34-.12,0,0,0,.11,0,.22-.1.72-.94,2.86-1,4-.09.8-.89,6.4.66,5.29a1,1,0,0,0,.26-.29,2.64,2.64,0,0,0,.18-.38c.43-1,.72-2.12,1.16-3.15a12.3,12.3,0,0,1,5.48-6,2.06,2.06,0,0,1,1.31-.34,1.47,1.47,0,0,1,1,1,3,3,0,0,1,.08,1.47,23.15,23.15,0,0,1-1,3.34,12,12,0,0,0-.48,2.07,4.69,4.69,0,0,0,.63,3.17,5.87,5.87,0,0,0,.62.86,9.85,9.85,0,0,0,3,2.31c2.11,1.09,4.45,1.73,6.4,3.07S397.65,294.23,397,296.51Z" transform="translate(-55.35 -1.73)" fill="#3e3e54"/><path d="M368.43,342c-1.85,2.24-3.78,3.95-5.63,6.2-.63.75-3.79,1.47-4.68,1.89a2.32,2.32,0,0,1-2.72-.35,2.35,2.35,0,0,1-.1-2.62,8,8,0,0,1,1.88-2.05c2.84-2.52,5.41-5.91,5.18-9.7-.15-2.43-1.44-4.66-1.7-7.08-.66-5.87,12.22-15.05,16.64-7.83S372.58,336.92,368.43,342Z" transform="translate(-55.35 -1.73)" fill="#3e3e54"/><path d="M332.94,339.1a29.46,29.46,0,0,0,7.31,6.67,2.67,2.67,0,0,1,1.18,1.33,1.81,1.81,0,0,1-1.09,2,5.38,5.38,0,0,1-2.4.34c-2,0-4.19-.09-5.93-1.15a11.05,11.05,0,0,1-2-1.66q-8.26-8.16-16.08-16.79c-1.32-1.46-2.7-3.07-2.89-5-.28-3,2.46-5.57,5.4-6.09s5.92.53,8.6,1.84c4.14,2,3.14,4.3,3.84,8A26.27,26.27,0,0,0,332.94,339.1Z" transform="translate(-55.35 -1.73)" fill="#3e3e54"/><path d="M393.63,317.15a1.44,1.44,0,0,1-.51.42,3.64,3.64,0,0,1-2.88-.45c-10.84-5.54-20.12-13.78-31-19.27-1.6-.81-3.38-1.71-4-3.39a4.48,4.48,0,0,1-.22-.76h0c-.61-3,3.33-2.6,5.1-1.56,3.36,2,6.62,4.14,9.93,6.2l19,11.89c2.06,1.28,4.3,2.82,4.81,5.2A2.15,2.15,0,0,1,393.63,317.15Z" transform="translate(-55.35 -1.73)" fill="#68e1fd"/><path d="M393.12,317.57a3.64,3.64,0,0,1-2.88-.45c-10.84-5.54-20.12-13.78-31-19.27-1.6-.81-3.38-1.71-4-3.39a4.48,4.48,0,0,1-.22-.76c1.14-.6,3.18-.19,4.32.48,3.35,2,6.62,4.14,9.92,6.2l19,11.89c2.07,1.29,4.31,2.82,4.82,5.2C393.11,317.5,393.11,317.54,393.12,317.57Z" transform="translate(-55.35 -1.73)" fill="url(#linear-gradient-9)"/><path d="M358.4,293.58s-79-50.8-101.08-102.16c0,0-1.94-4.47-8.27-2.07" transform="translate(-55.35 -1.73)" fill="none" stroke="#3e3e54" stroke-linecap="round" stroke-miterlimit="10" stroke-width="2"/><path d="M236.8,195.54s-3.38,2.25-3.94,3.94" transform="translate(-55.35 -1.73)" fill="none" stroke="#3e3e54" stroke-linecap="round" stroke-miterlimit="10" stroke-width="2"/><path d="M397.63,289.53a2,2,0,0,1,1.29.3,1.48,1.48,0,0,1,.46,1.1,4,4,0,0,1-1.2,2.84,2.25,2.25,0,0,1-1.43.78,2.67,2.67,0,0,1-1.89-1,23.9,23.9,0,0,1-1.74-1.88c-.7-.85-1.36-2,.15-2.18A39.66,39.66,0,0,1,397.63,289.53Z" transform="translate(-55.35 -1.73)" fill="#3e3e54"/><path d="M397.63,289.53a2,2,0,0,1,1.29.3,1.48,1.48,0,0,1,.46,1.1,4,4,0,0,1-1.2,2.84,2.25,2.25,0,0,1-1.43.78,2.67,2.67,0,0,1-1.89-1,23.9,23.9,0,0,1-1.74-1.88c-.7-.85-1.36-2,.15-2.18A39.66,39.66,0,0,1,397.63,289.53Z" transform="translate(-55.35 -1.73)" fill="url(#linear-gradient-10)"/><path d="M384.74,285.14a4.91,4.91,0,0,0-2.95-1.35,16.7,16.7,0,0,0-3.39-.1c-.19,0-.42,0-.49-.2a.45.45,0,0,1,0-.34,26.39,26.39,0,0,1,2-4.64,8.86,8.86,0,0,1,3.54-3.51.88.88,0,0,1,.68-.12c.37.14.42.64.35,1a23.48,23.48,0,0,1-.69,2.41,8.76,8.76,0,0,0-.3,2.79,4.69,4.69,0,0,0,.63,3.17A5.87,5.87,0,0,0,384.74,285.14Z" transform="translate(-55.35 -1.73)" fill="url(#linear-gradient-11)"/><path d="M375.43,283.42a1,1,0,0,0,.26-.29l0,.28c0,.22-.08.53-.32.62s-.29-.12-.49-.16a2.42,2.42,0,0,0-1.66.67,18.6,18.6,0,0,1-3.85,2c-.55-2.75.4-5.58,1.6-8.11a10.65,10.65,0,0,1,1.78-2.83,4.3,4.3,0,0,1,2.93-1.46h.16c-.1.72-.94,2.86-1,4C374.68,278.93,373.88,284.53,375.43,283.42Z" transform="translate(-55.35 -1.73)" fill="url(#linear-gradient-12)"/><circle cx="323.63" cy="288.86" r="0.89" fill="url(#linear-gradient-13)"/><path d="M169.22,220.32c3.44,6.76,8.82,12.14,15.7,19.78-.21,2.84-1.87,9.48-2.91,10.22a9.35,9.35,0,0,1-4.24,1.4,38.55,38.55,0,0,1-23.5-3.93l-2-1.83a4.83,4.83,0,0,1-1.45-1.86c-.08-.23-.71-.39-1.54-.52-.07-2,1.06-8.92,1.18-9.77,2-14,4-28,7.37-41.67a61.89,61.89,0,0,1,2.42-8.14,0,0,0,0,0,0,0,19.18,19.18,0,0,1,2.76-4.41C162.9,180.1,158,198.18,169.22,220.32Z" transform="translate(-55.35 -1.73)" fill="url(#linear-gradient-14)"/><path d="M186.16,243c-.13-.53-.26-1-.39-1.51A7.11,7.11,0,0,1,186.16,243Z" transform="translate(-55.35 -1.73)" fill="url(#linear-gradient-15)"/><path d="M218.78,242.56a4.7,4.7,0,0,1-3.65,5.14c-.5.22-1,.42-1.55.62l-.12-.11A7.16,7.16,0,0,1,212,245a401.58,401.58,0,0,0-15.93-49.52c-1.43-3.65-7.39-11.52-4.43-15.71a48.11,48.11,0,0,1,5.58-.33c2.48.09,4,1.71,5.58,3.67,3.3,4,5.07,9.1,6.59,14C213.46,210.05,219.2,229,218.78,242.56Z" transform="translate(-55.35 -1.73)" fill="url(#linear-gradient-16)"/></svg>